<svg width="169" height="50" viewBox="0 0 169 50" fill="none" xmlns="http://www.w3.org/2000/svg">
<rect x="0.5" y="0.5" width="167.75" height="49" rx="4.5" fill="black"/>
<path d="M85.1702 27.1886C82.2302 27.1886 79.834 29.4248 79.834 32.5048C79.834 35.5661 82.2302 37.8211 85.1702 37.8211C88.1115 37.8211 90.5077 35.5661 90.5077 32.5048C90.5065 29.4248 88.1102 27.1886 85.1702 27.1886ZM85.1702 35.7286C83.559 35.7286 82.1702 34.3998 82.1702 32.5061C82.1702 30.5923 83.5602 29.2836 85.1702 29.2836C86.7815 29.2836 88.1702 30.5923 88.1702 32.5061C88.1702 34.3986 86.7815 35.7286 85.1702 35.7286ZM73.5277 27.1886C70.5877 27.1886 68.1915 29.4248 68.1915 32.5048C68.1915 35.5661 70.5877 37.8211 73.5277 37.8211C76.469 37.8211 78.8652 35.5661 78.8652 32.5048C78.8652 29.4248 76.469 27.1886 73.5277 27.1886ZM73.5277 35.7286C71.9165 35.7286 70.5277 34.3998 70.5277 32.5061C70.5277 30.5923 71.9177 29.2836 73.5277 29.2836C75.139 29.2836 76.5277 30.5923 76.5277 32.5061C76.529 34.3986 75.139 35.7286 73.5277 35.7286ZM59.6802 28.8211V31.0761H65.0777C64.9165 32.3448 64.494 33.2711 63.849 33.9148C63.064 34.6998 61.8352 35.5661 59.6802 35.5661C56.3577 35.5661 53.7602 32.8873 53.7602 29.5648C53.7602 26.2423 56.3577 23.5636 59.6802 23.5636C61.4727 23.5636 62.7815 24.2686 63.7477 25.1748L65.339 23.5836C63.989 22.2948 62.1977 21.3086 59.6802 21.3086C55.129 21.3086 51.3027 25.0136 51.3027 29.5648C51.3027 34.1161 55.129 37.8211 59.6802 37.8211C62.1365 37.8211 63.9902 37.0148 65.439 35.5048C66.929 34.0148 67.3927 31.9198 67.3927 30.2286C67.3927 29.7061 67.3527 29.2223 67.2715 28.8198H59.6802V28.8211ZM116.315 30.5723C115.873 29.3848 114.523 27.1886 111.764 27.1886C109.025 27.1886 106.749 29.3436 106.749 32.5048C106.749 35.4848 109.005 37.8211 112.025 37.8211C114.461 37.8211 115.871 36.3311 116.456 35.4648L114.644 34.2561C114.04 35.1423 113.214 35.7261 112.025 35.7261C110.838 35.7261 109.991 35.1823 109.448 34.1148L116.556 31.1748L116.315 30.5723ZM109.065 32.3448C109.005 30.2898 110.656 29.2436 111.845 29.2436C112.771 29.2436 113.556 29.7073 113.819 30.3711L109.065 32.3448ZM103.286 37.4998H105.621V21.8736H103.286V37.4998ZM99.459 28.3773H99.379C98.8552 27.7523 97.8477 27.1886 96.5802 27.1886C93.9215 27.1886 91.4852 29.5248 91.4852 32.5261C91.4852 35.5061 93.9215 37.8223 96.5802 37.8223C97.849 37.8223 98.8552 37.2586 99.379 36.6148H99.459V37.3798C99.459 39.4136 98.3715 40.5011 96.6202 40.5011C95.1902 40.5011 94.304 39.4748 93.9415 38.6086L91.9077 39.4548C92.4915 40.8636 94.0415 42.5961 96.6202 42.5961C99.359 42.5961 101.675 40.9848 101.675 37.0573V27.5123H99.4602V28.3773H99.459ZM96.7815 35.7286C95.1702 35.7286 93.8215 34.3786 93.8215 32.5261C93.8215 30.6523 95.1702 29.2836 96.7815 29.2836C98.3715 29.2836 99.6202 30.6523 99.6202 32.5261C99.6202 34.3786 98.3715 35.7286 96.7815 35.7286ZM127.258 21.8736H121.669V37.4998H124V31.5798H127.256C129.841 31.5798 132.384 29.7086 132.384 26.7273C132.384 23.7461 129.843 21.8736 127.258 21.8736ZM127.318 29.4048H124V24.0486H127.318C129.061 24.0486 130.051 25.4923 130.051 26.7273C130.051 27.9373 129.061 29.4048 127.318 29.4048ZM141.733 27.1611C140.044 27.1611 138.295 27.9048 137.571 29.5536L139.641 30.4173C140.084 29.5536 140.909 29.2711 141.773 29.2711C142.979 29.2711 144.205 29.9948 144.225 31.2811V31.4423C143.803 31.2011 142.898 30.8398 141.793 30.8398C139.561 30.8398 137.289 32.0661 137.289 34.3573C137.289 36.4486 139.119 37.7948 141.169 37.7948C142.736 37.7948 143.601 37.0911 144.144 36.2661H144.224V37.4723H146.476V31.4811C146.478 28.7086 144.405 27.1611 141.733 27.1611ZM141.45 35.7248C140.688 35.7248 139.621 35.3423 139.621 34.3973C139.621 33.1911 140.949 32.7286 142.095 32.7286C143.119 32.7286 143.603 32.9498 144.225 33.2511C144.044 34.6998 142.798 35.7248 141.45 35.7248ZM154.679 27.5023L152.005 34.2773H151.925L149.15 27.5023H146.638L150.799 36.9711L148.426 42.2386H150.859L157.273 27.5023H154.679ZM133.671 37.4998H136.003V21.8736H133.671V37.4998Z" fill="white"/>
<g filter="url(#filter0_ii)">
<path d="M13.0446 9.4223C12.6808 9.8073 12.4658 10.4048 12.4658 11.1786V38.8235C12.4658 39.5985 12.6808 40.1948 13.0446 40.5798L13.1371 40.6698L28.6233 25.1836V25.0011V24.8186L13.1371 9.33105L13.0446 9.4223Z" fill="url(#paint0_linear)"/>
<path d="M33.7843 30.3475L28.623 25.1837V25.0012V24.8187L33.7855 19.6563L33.9018 19.7225L40.018 23.1975C41.7643 24.19 41.7643 25.8137 40.018 26.8075L33.9018 30.2825L33.7843 30.3475Z" fill="url(#paint1_linear)"/>
<g filter="url(#filter1_i)">
<path d="M33.9024 30.281L28.6224 25.001L13.0449 40.5797C13.6199 41.1897 14.5712 41.2647 15.6424 40.6572L33.9024 30.281Z" fill="url(#paint2_linear)"/>
</g>
<path d="M33.9024 19.7209L15.6424 9.34588C14.5712 8.73713 13.6199 8.81338 13.0449 9.42338L28.6237 25.0021L33.9024 19.7209Z" fill="url(#paint3_linear)"/>
</g>
<path d="M51.3574 16.418V8.87891H52.9395C53.6979 8.87891 54.2969 8.95378 54.7363 9.10352C55.2083 9.25 55.6364 9.49902 56.0205 9.85059C56.7985 10.5602 57.1875 11.4928 57.1875 12.6484C57.1875 13.8073 56.7822 14.7448 55.9717 15.4609C55.5648 15.819 55.1383 16.068 54.6924 16.208C54.2757 16.348 53.6849 16.418 52.9199 16.418H51.3574ZM52.4951 15.3486H53.0078C53.5189 15.3486 53.9437 15.2949 54.2822 15.1875C54.6208 15.0736 54.9268 14.8929 55.2002 14.6455C55.7601 14.1344 56.04 13.4688 56.04 12.6484C56.04 11.8216 55.7633 11.151 55.21 10.6367C54.7119 10.1777 53.9779 9.94824 53.0078 9.94824H52.4951V15.3486Z" fill="white"/>
<path d="M59.7607 8.87891V16.418H58.623V8.87891H59.7607Z" fill="white"/>
<path d="M65.835 10.002L64.9121 10.5488C64.7396 10.2493 64.5752 10.054 64.4189 9.96289C64.2562 9.85872 64.0462 9.80664 63.7891 9.80664C63.4733 9.80664 63.2113 9.89616 63.0029 10.0752C62.7946 10.251 62.6904 10.4723 62.6904 10.7393C62.6904 11.1071 62.9639 11.4033 63.5107 11.6279L64.2627 11.9355C64.8747 12.1829 65.3223 12.4857 65.6055 12.8438C65.8887 13.1986 66.0303 13.6348 66.0303 14.1523C66.0303 14.8457 65.7992 15.4186 65.3369 15.8711C64.8714 16.3268 64.2936 16.5547 63.6035 16.5547C62.9492 16.5547 62.4089 16.361 61.9824 15.9736C61.5625 15.5863 61.3005 15.041 61.1963 14.3379L62.3486 14.084C62.4007 14.5267 62.4919 14.8327 62.6221 15.002C62.8564 15.3275 63.1982 15.4902 63.6475 15.4902C64.0023 15.4902 64.2969 15.3714 64.5312 15.1338C64.7656 14.8962 64.8828 14.5951 64.8828 14.2305C64.8828 14.084 64.8617 13.9505 64.8193 13.8301C64.7803 13.7064 64.7168 13.5941 64.6289 13.4932C64.5443 13.389 64.4336 13.293 64.2969 13.2051C64.1602 13.1139 63.9974 13.0277 63.8086 12.9463L63.0811 12.6436C62.0492 12.2074 61.5332 11.5693 61.5332 10.7295C61.5332 10.1631 61.7497 9.68945 62.1826 9.30859C62.6156 8.92448 63.1543 8.73242 63.7988 8.73242C64.668 8.73242 65.3467 9.1556 65.835 10.002Z" fill="white"/>
<path d="M68.54 13.3564V16.418H67.4023V8.87891H68.6914C69.3229 8.87891 69.7998 8.92285 70.1221 9.01074C70.4476 9.09863 70.734 9.26465 70.9814 9.50879C71.4144 9.93197 71.6309 10.4658 71.6309 11.1104C71.6309 11.8005 71.3997 12.3473 70.9375 12.751C70.4753 13.1546 69.8519 13.3564 69.0674 13.3564H68.54ZM68.54 12.3018H68.9648C70.0098 12.3018 70.5322 11.8997 70.5322 11.0957C70.5322 10.3177 69.9935 9.92871 68.916 9.92871H68.54V12.3018Z" fill="white"/>
<path d="M72.4268 12.6143C72.4268 11.5531 72.8158 10.6416 73.5938 9.87988C74.3685 9.11816 75.2995 8.73731 76.3867 8.73731C77.4609 8.73731 78.3822 9.12142 79.1504 9.88965C79.9219 10.6579 80.3076 11.5807 80.3076 12.6582C80.3076 13.7422 79.9202 14.6618 79.1455 15.417C78.3675 16.1755 77.4284 16.5547 76.3281 16.5547C75.3548 16.5547 74.4808 16.2178 73.7061 15.5439C72.8532 14.7985 72.4268 13.8219 72.4268 12.6143ZM73.5742 12.6289C73.5742 13.4622 73.8542 14.1475 74.4141 14.6846C74.9707 15.2217 75.6136 15.4902 76.3428 15.4902C77.1338 15.4902 77.8011 15.2168 78.3447 14.6699C78.8883 14.1165 79.1602 13.4427 79.1602 12.6484C79.1602 11.8444 78.8916 11.1706 78.3545 10.627C77.8206 10.0801 77.1598 9.80664 76.3721 9.80664C75.5876 9.80664 74.9251 10.0801 74.3848 10.627C73.8444 11.1673 73.5742 11.8346 73.5742 12.6289Z" fill="white"/>
<path d="M81.7383 16.418V8.36621L87.2363 14.1182V8.87891H88.374V16.877L82.876 11.1396V16.418H81.7383Z" fill="white"/>
<path d="M91.3232 8.87891V16.418H90.1855V8.87891H91.3232ZM92.5879 6.85254L90.7129 8.2002L90.1709 7.74609L91.6602 6.17383L92.5879 6.85254Z" fill="white"/>
<path d="M93.5156 8.87891L95.6006 14.1035L97.7148 8.87891H98.96L95.5762 16.9844L92.2705 8.87891H93.5156Z" fill="white"/>
<path d="M104.062 9.94824H101.04V11.7598H103.975V12.8291H101.04V15.3486H104.062V16.418H99.9023V8.87891H104.062V9.94824Z" fill="white"/>
<path d="M106.694 8.87891V15.3486H108.911V16.418H105.557V8.87891H106.694Z" fill="white"/>
<path d="M113.076 16.418V8.36621L118.574 14.1182V8.87891H119.712V16.877L114.214 11.1396V16.418H113.076Z" fill="white"/>
<path d="M121.216 12.6143C121.216 11.5531 121.605 10.6416 122.383 9.87988C123.158 9.11816 124.089 8.73731 125.176 8.73731C126.25 8.73731 127.171 9.12142 127.939 9.88965C128.711 10.6579 129.097 11.5807 129.097 12.6582C129.097 13.7422 128.709 14.6618 127.935 15.417C127.157 16.1755 126.217 16.5547 125.117 16.5547C124.144 16.5547 123.27 16.2178 122.495 15.5439C121.642 14.7985 121.216 13.8219 121.216 12.6143ZM122.363 12.6289C122.363 13.4622 122.643 14.1475 123.203 14.6846C123.76 15.2217 124.403 15.4902 125.132 15.4902C125.923 15.4902 126.59 15.2168 127.134 14.6699C127.677 14.1165 127.949 13.4427 127.949 12.6484C127.949 11.8444 127.681 11.1706 127.144 10.627C126.61 10.0801 125.949 9.80664 125.161 9.80664C124.377 9.80664 123.714 10.0801 123.174 10.627C122.633 11.1673 122.363 11.8346 122.363 12.6289Z" fill="white"/>
<rect x="0.5" y="0.5" width="167.75" height="49" rx="4.5" stroke="#A6A6A6"/>
<defs>
<filter id="filter0_ii" x="12.4658" y="8.92578" width="28.8619" height="32.151" filterUnits="userSpaceOnUse" color-interpolation-filters="sRGB">
<feFlood flood-opacity="0" result="BackgroundImageFix"/>
<feBlend mode="normal" in="SourceGraphic" in2="BackgroundImageFix" result="shape"/>
<feColorMatrix in="SourceAlpha" type="matrix" values="0 0 0 0 0 0 0 0 0 0 0 0 0 0 0 0 0 0 127 0" result="hardAlpha"/>
<feOffset dy="-0.15"/>
<feComposite in2="hardAlpha" operator="arithmetic" k2="-1" k3="1"/>
<feColorMatrix type="matrix" values="0 0 0 0 0 0 0 0 0 0 0 0 0 0 0 0 0 0 0.12 0"/>
<feBlend mode="normal" in2="shape" result="effect1_innerShadow"/>
<feColorMatrix in="SourceAlpha" type="matrix" values="0 0 0 0 0 0 0 0 0 0 0 0 0 0 0 0 0 0 127 0" result="hardAlpha"/>
<feOffset dy="0.15"/>
<feComposite in2="hardAlpha" operator="arithmetic" k2="-1" k3="1"/>
<feColorMatrix type="matrix" values="0 0 0 0 1 0 0 0 0 1 0 0 0 0 1 0 0 0 0.25 0"/>
<feBlend mode="normal" in2="effect1_innerShadow" result="effect2_innerShadow"/>
</filter>
<filter id="filter1_i" x="13.0449" y="25.001" width="20.8575" height="16.0758" filterUnits="userSpaceOnUse" color-interpolation-filters="sRGB">
<feFlood flood-opacity="0" result="BackgroundImageFix"/>
<feBlend mode="normal" in="SourceGraphic" in2="BackgroundImageFix" result="shape"/>
<feColorMatrix in="SourceAlpha" type="matrix" values="0 0 0 0 0 0 0 0 0 0 0 0 0 0 0 0 0 0 127 0" result="hardAlpha"/>
<feOffset dy="-0.15"/>
<feComposite in2="hardAlpha" operator="arithmetic" k2="-1" k3="1"/>
<feColorMatrix type="matrix" values="0 0 0 0 0 0 0 0 0 0 0 0 0 0 0 0 0 0 0.08 0"/>
<feBlend mode="normal" in2="shape" result="effect1_innerShadow"/>
</filter>
<linearGradient id="paint0_linear" x1="27.2506" y1="10.8861" x2="6.27308" y2="31.8636" gradientUnits="userSpaceOnUse">
<stop stop-color="#00A0FF"/>
<stop offset="0.0066" stop-color="#00A1FF"/>
<stop offset="0.2601" stop-color="#00BEFF"/>
<stop offset="0.5122" stop-color="#00D2FF"/>
<stop offset="0.7604" stop-color="#00DFFF"/>
<stop offset="1" stop-color="#00E3FF"/>
</linearGradient>
<linearGradient id="paint1_linear" x1="42.2912" y1="25.0013" x2="12.0463" y2="25.0013" gradientUnits="userSpaceOnUse">
<stop stop-color="#FFE000"/>
<stop offset="0.4087" stop-color="#FFBD00"/>
<stop offset="0.7754" stop-color="#FFA500"/>
<stop offset="1" stop-color="#FF9C00"/>
</linearGradient>
<linearGradient id="paint2_linear" x1="31.035" y1="27.8684" x2="2.58693" y2="56.3165" gradientUnits="userSpaceOnUse">
<stop stop-color="#FF3A44"/>
<stop offset="1" stop-color="#C31162"/>
</linearGradient>
<linearGradient id="paint3_linear" x1="9.12167" y1="0.220626" x2="21.8245" y2="12.9235" gradientUnits="userSpaceOnUse">
<stop stop-color="#32A071"/>
<stop offset="0.0685" stop-color="#2DA771"/>
<stop offset="0.4762" stop-color="#15CF74"/>
<stop offset="0.8009" stop-color="#06E775"/>
<stop offset="1" stop-color="#00F076"/>
</linearGradient>
</defs>
</svg>
