<svg width="151" height="50" viewBox="0 0 151 50" fill="none" xmlns="http://www.w3.org/2000/svg">
<rect x="1.25" y="0.5" width="149" height="49" rx="6.5" fill="#0C0D10"/>
<path d="M102.657 24.0014V26.8652H100.862V28.7433H102.657V35.1245C102.657 37.3034 103.643 38.175 106.123 38.175C106.559 38.175 106.974 38.1231 107.337 38.0609V36.2036C107.026 36.2347 106.828 36.2555 106.486 36.2555C105.376 36.2555 104.888 35.7367 104.888 34.5538V28.7433H107.337V26.8652H104.888V24.0014H102.657Z" fill="white"/>
<path d="M113.654 38.3307C116.954 38.3307 118.977 36.1206 118.977 32.4579C118.977 28.8159 116.943 26.5954 113.654 26.5954C110.355 26.5954 108.321 28.8159 108.321 32.4579C108.321 36.1206 110.344 38.3307 113.654 38.3307ZM113.654 36.3489C111.714 36.3489 110.624 34.9273 110.624 32.4579C110.624 30.0091 111.714 28.5772 113.654 28.5772C115.584 28.5772 116.684 30.0091 116.684 32.4579C116.684 34.917 115.584 36.3489 113.654 36.3489Z" fill="white"/>
<path d="M120.708 38.1128H122.939V31.441C122.939 29.8535 124.132 28.7848 125.824 28.7848C126.218 28.7848 126.882 28.8574 127.069 28.9197V26.7199C126.83 26.6577 126.405 26.6266 126.073 26.6266C124.599 26.6266 123.344 27.4359 123.022 28.5461H122.856V26.8133H120.708V38.1128Z" fill="white"/>
<path d="M132.608 28.4942C134.258 28.4942 135.337 29.646 135.389 31.4203H129.682C129.806 29.6563 130.958 28.4942 132.608 28.4942ZM135.378 35.0622C134.963 35.9442 134.04 36.4319 132.691 36.4319C130.906 36.4319 129.754 35.1764 129.682 33.1946V33.07H137.661V32.2918C137.661 28.7433 135.762 26.5954 132.618 26.5954C129.433 26.5954 127.409 28.8885 127.409 32.4994C127.409 36.1102 129.391 38.3307 132.629 38.3307C135.212 38.3307 137.018 37.0855 137.526 35.0622H135.378Z" fill="white"/>
<path d="M88.0279 33.9401C88.1999 36.7147 90.5121 38.4892 93.9535 38.4892C97.6315 38.4892 99.933 36.6287 99.933 33.6604C99.933 31.3267 98.621 30.0362 95.4377 29.2942L93.7277 28.8747C91.7059 28.4015 90.8885 27.767 90.8885 26.6593C90.8885 25.2613 92.1576 24.3471 94.0611 24.3471C95.8678 24.3471 97.1153 25.2398 97.3412 26.6701H99.6856C99.5458 24.0568 97.2444 22.2178 94.0934 22.2178C90.7057 22.2178 88.4473 24.0568 88.4473 26.8207C88.4473 29.1006 89.7271 30.4556 92.534 31.1117L94.5343 31.5956C96.5884 32.0796 97.4917 32.7893 97.4917 33.9723C97.4917 35.3489 96.0722 36.349 94.1364 36.349C92.0608 36.349 90.6197 35.4134 90.4153 33.9401H88.0279Z" fill="white"/>
<path d="M64.9187 26.6266C63.3831 26.6266 62.0549 27.3944 61.3701 28.681H61.2041V26.8133H59.0563V41.8689H61.2871V36.4007H61.4635C62.0549 37.594 63.3312 38.2995 64.9395 38.2995C67.7929 38.2995 69.6086 36.0479 69.6086 32.4579C69.6086 28.8678 67.7929 26.6266 64.9187 26.6266ZM64.2858 36.297C62.4181 36.297 61.2456 34.8236 61.2456 32.4682C61.2456 30.1025 62.4181 28.6291 64.2961 28.6291C66.1846 28.6291 67.3156 30.0714 67.3156 32.4579C67.3156 34.8547 66.1846 36.297 64.2858 36.297Z" fill="white"/>
<path d="M77.4147 26.6266C75.8791 26.6266 74.5509 27.3944 73.8661 28.681H73.7001V26.8133H71.5523V41.8689H73.7831V36.4007H73.9595C74.5509 37.594 75.8272 38.2995 77.4355 38.2995C80.2888 38.2995 82.1046 36.0479 82.1046 32.4579C82.1046 28.8678 80.2888 26.6266 77.4147 26.6266ZM76.7818 36.297C74.9141 36.297 73.7416 34.8236 73.7416 32.4682C73.7416 30.1025 74.9141 28.6291 76.7921 28.6291C78.6806 28.6291 79.8116 30.0714 79.8116 32.4579C79.8116 34.8547 78.6806 36.297 76.7818 36.297Z" fill="white"/>
<path d="M55.0538 38.1128H57.6133L52.0103 22.5942H49.4185L43.8154 38.1128H46.2889L47.7193 33.9938H53.6342L55.0538 38.1128ZM50.5907 25.4118H50.7735L53.0212 31.972H48.3323L50.5907 25.4118Z" fill="white"/>
<path d="M45.2861 18.483H48.0928C50.334 18.483 51.6155 17.1082 51.6155 14.7113V14.7009C51.6155 12.356 50.3185 10.9967 48.0928 10.9967H45.2861V18.483ZM46.6246 17.3572V12.1225H47.9164C49.3846 12.1225 50.251 13.0771 50.251 14.7217V14.7321C50.251 16.413 49.4054 17.3572 47.9164 17.3572H46.6246Z" fill="white"/>
<path d="M53.6803 11.8631C54.1005 11.8631 54.4481 11.5259 54.4481 11.1005C54.4481 10.6802 54.1005 10.3378 53.6803 10.3378C53.2549 10.3378 52.9073 10.6802 52.9073 11.1005C52.9073 11.5259 53.2549 11.8631 53.6803 11.8631ZM53.0318 18.483H54.3236V12.8125H53.0318V18.483Z" fill="white"/>
<path d="M58.0538 18.5971C59.4493 18.5971 60.461 17.876 60.461 16.7969V16.7865C60.461 15.9616 59.937 15.4895 58.8268 15.2405L57.9085 15.0381C57.2963 14.8981 57.0577 14.6957 57.0577 14.3637V14.3585C57.0577 13.9331 57.4727 13.653 58.0486 13.653C58.6556 13.653 59.0291 13.9435 59.1225 14.3015L59.1277 14.317H60.3417V14.3066C60.2587 13.3884 59.4338 12.7036 58.0538 12.7036C56.7153 12.7036 55.7814 13.4091 55.7814 14.4312V14.4363C55.7814 15.2716 56.295 15.78 57.3741 16.0187L58.2924 16.2262C58.915 16.3663 59.164 16.5842 59.164 16.9162V16.9266C59.164 17.352 58.7178 17.6425 58.0745 17.6425C57.4312 17.6425 57.0525 17.3676 56.9176 16.9733L56.9124 16.9629H55.631V16.9733C55.7399 17.933 56.6115 18.5971 58.0538 18.5971Z" fill="white"/>
<path d="M61.7632 20.3662H63.055V17.5803H63.1432C63.4389 18.1924 64.0874 18.5764 64.8656 18.5764C66.3027 18.5764 67.195 17.4609 67.195 15.6555V15.6451C67.195 13.8501 66.2871 12.7191 64.8656 12.7191C64.0718 12.7191 63.4545 13.0823 63.1432 13.6996H63.055V12.8125H61.7632V20.3662ZM64.4609 17.4869C63.5842 17.4869 63.0394 16.7865 63.0394 15.6503V15.64C63.0394 14.5038 63.5842 13.8086 64.4609 13.8086C65.3429 13.8086 65.8773 14.5038 65.8773 15.6451V15.6555C65.8773 16.7917 65.3429 17.4869 64.4609 17.4869Z" fill="white"/>
<path d="M70.9459 18.5971C72.6424 18.5971 73.6748 17.4869 73.6748 15.6503V15.64C73.6748 13.8138 72.6372 12.7036 70.9459 12.7036C69.2598 12.7036 68.217 13.819 68.217 15.64V15.6503C68.217 17.4869 69.2443 18.5971 70.9459 18.5971ZM70.9459 17.5491C70.0484 17.5491 69.5348 16.8488 69.5348 15.6555V15.6451C69.5348 14.4519 70.0484 13.7463 70.9459 13.7463C71.8383 13.7463 72.3519 14.4519 72.3519 15.6451V15.6555C72.3519 16.8488 71.8434 17.5491 70.9459 17.5491Z" fill="white"/>
<path d="M74.9718 18.483H76.2636V15.1782C76.2636 14.3274 76.7409 13.7878 77.5087 13.7878C78.2921 13.7878 78.6501 14.234 78.6501 15.116V18.483H79.9419V14.8151C79.9419 13.4662 79.2519 12.7036 77.986 12.7036C77.1663 12.7036 76.6216 13.0719 76.3518 13.6789H76.2636V12.8125H74.9718V18.483Z" fill="white"/>
<path d="M82.5359 12.0447L83.7758 10.2393H82.4788L81.5709 12.0447H82.5359ZM81.4827 18.483H82.7745V12.8125H81.4827V18.483Z" fill="white"/>
<path d="M85.8873 18.483H87.3036L89.3114 12.8125H87.9521L86.65 17.2223H86.5618L85.2492 12.8125H83.8692L85.8873 18.483Z" fill="white"/>
<path d="M92.6006 18.5971C94.1414 18.5971 94.8989 17.71 95.0804 16.9785L95.096 16.9318H93.8665L93.8509 16.9681C93.7264 17.2275 93.3269 17.5803 92.6265 17.5803C91.7498 17.5803 91.1998 16.9888 91.1843 15.972H95.1479V15.5466C95.1479 13.8345 94.1518 12.7036 92.5383 12.7036C90.9249 12.7036 89.8925 13.8708 89.8925 15.6555V15.6607C89.8925 17.4661 90.9145 18.5971 92.6006 18.5971ZM92.5539 13.7152C93.275 13.7152 93.799 14.1769 93.8872 15.1056H91.1946C91.2932 14.2029 91.8328 13.7152 92.5539 13.7152Z" fill="white"/>
<path d="M96.4916 18.483H97.7834V10.618H96.4916V18.483Z" fill="white"/>
<path d="M102.25 18.483H103.542V15.1782C103.542 14.3274 104.019 13.7878 104.787 13.7878C105.571 13.7878 105.929 14.234 105.929 15.116V18.483H107.22V14.8151C107.22 13.4662 106.53 12.7036 105.264 12.7036C104.445 12.7036 103.9 13.0719 103.63 13.6789H103.542V12.8125H102.25V18.483Z" fill="white"/>
<path d="M110.292 18.5764C111.039 18.5764 111.641 18.2547 111.952 17.7048H112.04V18.483H113.316V14.6075C113.316 13.4091 112.497 12.7036 111.039 12.7036C109.69 12.7036 108.777 13.3365 108.652 14.2911L108.647 14.3378H109.866L109.871 14.317C110.001 13.9435 110.385 13.7308 110.976 13.7308C111.672 13.7308 112.04 14.0421 112.04 14.6075V15.0952L110.582 15.1834C109.202 15.2664 108.429 15.8578 108.429 16.8695V16.8799C108.429 17.9123 109.213 18.5764 110.292 18.5764ZM109.705 16.8176V16.8073C109.705 16.3403 110.043 16.0757 110.764 16.0291L112.04 15.946V16.4026C112.04 17.077 111.464 17.5854 110.686 17.5854C110.115 17.5854 109.705 17.3001 109.705 16.8176Z" fill="white"/>
<path d="M31.7115 25.3758C31.7386 23.2746 32.867 21.2863 34.6572 20.1858C33.5278 18.5729 31.6362 17.5502 29.6682 17.4887C27.5692 17.2683 25.5342 18.7447 24.4646 18.7447C23.3743 18.7447 21.7274 17.5105 19.954 17.547C17.6424 17.6217 15.4875 18.9359 14.3628 20.9569C11.9453 25.1424 13.7486 31.2937 16.0643 34.677C17.223 36.3337 18.5771 38.1842 20.3489 38.1186C22.0827 38.0467 22.7302 37.013 24.8231 37.013C26.8966 37.013 27.5041 38.1186 29.3119 38.0769C31.1723 38.0467 32.3445 36.4128 33.4625 34.7404C34.295 33.56 34.9356 32.2553 35.3605 30.8748C33.1741 29.9501 31.714 27.7498 31.7115 25.3758Z" fill="white"/>
<path d="M28.2969 15.2637C29.3113 14.0459 29.8111 12.4807 29.6901 10.9004C28.1403 11.0632 26.7087 11.8039 25.6806 12.9749C24.6752 14.1191 24.152 15.6568 24.2509 17.1766C25.8013 17.1926 27.3254 16.472 28.2969 15.2637Z" fill="white"/>
<rect x="1.25" y="0.5" width="149" height="49" rx="6.5" stroke="#A6A6A6"/>
</svg>
