<svg width="353" height="42" viewBox="0 0 353 42" fill="none" xmlns="http://www.w3.org/2000/svg">
<path d="M23.607 15.1592C21.2629 12.4984 18.2491 11.168 14.2306 11.168C10.5471 11.168 7.19836 12.4984 4.5194 15.4918C1.84045 18.4852 0.500977 21.8112 0.500977 26.1351C0.500977 30.4589 1.84045 33.7849 4.5194 36.7783C7.19836 39.7717 10.5471 41.1022 14.2306 41.1022C18.2491 41.1022 21.2629 39.7718 23.607 37.1109V40.437H30.9741V12.1658H23.607V15.1592ZM7.8681 25.8025C7.8681 23.4743 8.53786 21.4786 10.2122 20.1482C11.5517 18.8178 13.5609 17.82 15.905 17.82C18.2491 17.82 19.9234 18.4852 21.5978 20.1482C22.9373 21.4786 23.9419 23.4743 23.9419 25.8025C23.9419 28.1307 23.2721 30.1263 21.5978 31.4567C20.2583 32.7871 18.2491 33.7849 15.905 33.7849C13.5609 33.7849 11.8866 33.1197 10.2122 31.4567C8.87272 30.1263 7.8681 28.1307 7.8681 25.8025ZM43.6992 11.8332H36.332V40.1043H43.6992V26.8003C43.6992 24.1394 44.7038 22.1438 46.3781 21.146C48.0525 20.1482 50.0617 19.483 52.4058 19.8156V11.8332C50.3966 11.8332 48.7222 12.1658 47.0479 13.1636C45.3735 14.1614 44.3689 15.4918 43.6992 17.1548V11.8332Z" fill="#3B3A3A"/>
<path d="M72.4978 11.834H66.1353V3.85156L58.7682 6.17977V11.834H53.7451V18.8187H58.7682V30.4597C58.7682 34.4509 59.7728 37.1117 61.782 38.4422C63.7912 40.1052 67.4748 40.4378 72.4978 39.7726V33.1206C71.1583 33.1206 69.8189 33.1206 69.1491 33.1206C68.1445 33.1206 67.4748 32.788 67.1399 32.4554C66.805 32.1228 66.4702 31.4575 66.4702 30.4597V18.8187H72.8327V11.834H72.4978ZM99.9571 14.8274C98.2828 12.1666 95.6038 10.8362 92.2551 10.8362C88.5716 10.8362 86.2275 12.1666 84.2183 14.4948V11.5014H76.8511V39.7726H84.2183V24.1403C84.2183 22.1447 84.5531 20.4817 85.5577 19.4838C86.5624 18.486 87.9018 17.8208 89.5762 17.8208C91.2505 17.8208 92.2551 18.1535 92.9249 19.1513C93.5946 20.1491 94.2644 21.4795 94.2644 23.1425V40.1052H101.631V24.4729C101.631 22.4773 101.966 20.8143 102.971 19.8165C103.976 18.8187 105.315 18.1535 106.989 18.1535C108.664 18.1535 109.668 18.486 110.338 19.4838C111.008 20.4817 111.678 21.8121 111.678 23.4751V40.4378H119.045V23.1425C119.045 19.4839 118.04 16.8231 116.031 14.8274C114.022 12.8318 111.343 11.834 108.329 11.834C104.645 10.8362 101.631 12.1666 99.9571 14.8274ZM151.527 28.7967C151.862 27.7989 151.862 26.8011 151.862 25.8033C151.862 21.4795 150.522 18.1534 147.844 15.16C145.165 12.1666 141.816 10.8362 137.463 10.8362C133.109 10.8362 129.426 12.1666 126.747 15.16C124.068 18.1534 122.393 21.4795 122.393 25.8033C122.393 30.1271 123.733 33.4532 126.747 36.4466C129.426 39.1074 133.444 40.7704 138.132 40.7704C143.49 40.7704 147.844 38.7748 150.522 34.7836L144.495 31.4575C143.155 33.4532 140.811 34.1184 138.132 34.1184C133.779 34.1184 131.1 32.4553 130.095 28.7967H151.527ZM132.774 18.8187C134.114 17.8208 135.788 17.4883 137.797 17.4883C139.472 17.4883 140.811 17.8208 142.151 18.8187C143.49 19.8165 144.16 21.1469 144.83 23.1425H130.43C130.43 21.4795 131.435 19.8165 132.774 18.8187Z" fill="#3B3A3A"/>
<path d="M176.977 15.1599C174.968 12.499 171.619 11.1686 167.936 11.1686C164.252 11.1686 160.903 12.4991 158.224 15.4925C155.546 18.4859 154.206 21.8119 154.206 26.1357C154.206 30.4596 155.546 33.7856 158.224 36.779C160.903 39.7724 164.252 41.1028 167.936 41.1028C171.954 41.1028 174.968 39.7724 176.977 37.1116V40.4376H184.344V0.525391H176.977V15.1599ZM161.238 25.8032C161.238 23.475 161.908 21.4793 163.582 20.1489C164.922 18.8185 166.931 17.8207 169.275 17.8207C171.619 17.8207 173.294 18.4859 174.968 20.1489C176.307 21.4793 177.312 23.475 177.312 25.8032C177.312 28.1314 176.642 30.127 174.968 31.4574C173.629 32.7878 171.619 33.7856 169.275 33.7856C166.931 33.7856 165.257 33.1204 163.582 31.4574C162.243 30.127 161.238 28.1314 161.238 25.8032Z" fill="#3B3A3A"/>
<path d="M221.768 22.4766H207.368V28.4634H221.768V22.4766Z" fill="#6292FF"/>
<path d="M210.383 25.4707H204.355V39.7726H210.383V25.4707Z" fill="#4379F4"/>
<path d="M210.384 28.4633H192.971V22.4765H204.356V11.168H210.384V28.4633Z" fill="#204497"/>
<path fill-rule="evenodd" clip-rule="evenodd" d="M236.001 6.37395C232.147 10.202 230.455 14.8354 230.395 20.2741H230.406C230.398 20.5311 230.394 20.7899 230.394 21.0506C230.394 26.6206 232.076 31.3552 236.002 35.2543C239.647 39.1533 244.414 41.1028 250.302 41.1028C253.947 41.1028 257.032 40.2673 260.116 38.5963C263.201 36.9253 265.444 34.6973 267.126 31.9122L260.677 28.0132C259.555 29.6842 258.153 31.0767 256.471 31.9122C254.789 32.7477 252.826 33.3048 250.583 33.3048C246.937 33.3048 243.853 31.9122 241.61 29.6842C239.366 27.1777 238.245 24.1141 238.245 20.4936C238.245 20.4201 238.245 20.347 238.246 20.2741H238.266C238.432 17.0262 239.546 14.2495 241.61 11.944C243.853 9.716 246.937 8.32347 250.582 8.32347C252.826 8.32347 254.788 8.88048 256.471 9.71599C258.153 10.5515 259.555 11.944 260.677 13.6151L267.126 9.71599C265.444 6.93095 263.201 4.70293 260.116 3.03191C257.032 1.36089 253.947 0.525391 250.302 0.525391C244.414 0.525391 239.647 2.47489 236.001 6.37395Z" fill="#204497"/>
<path d="M282.548 2.41602H274.978V40.8496H297.41V33.6084H282.548V2.41602ZM304.981 40.8496H312.552V2.41602H304.981V40.8496ZM345.359 25.8103L328.815 2.41602H322.926V40.8496H330.497V17.4552L347.041 40.8496H352.93V2.41602H345.359V25.8103Z" fill="#204497"/>
</svg>
