<svg width="16" height="20" viewBox="0 0 16 20" fill="none" xmlns="http://www.w3.org/2000/svg">
<path d="M8.01659 4.80258C8.87419 4.80258 9.9492 4.2228 10.5894 3.44975C11.1692 2.74918 11.5919 1.7708 11.5919 0.792413C11.5919 0.659546 11.5798 0.526678 11.5557 0.417969C10.6015 0.454205 9.45397 1.05815 8.76548 1.86743C8.22193 2.48345 7.7267 3.44975 7.7267 4.44022C7.7267 4.58517 7.75086 4.73011 7.76293 4.77843C7.82333 4.7905 7.91996 4.80258 8.01659 4.80258ZM4.99688 19.418C6.16853 19.418 6.68792 18.6328 8.14946 18.6328C9.63515 18.6328 9.96128 19.3938 11.2658 19.3938C12.5462 19.3938 13.4037 18.2101 14.213 17.0505C15.1189 15.7218 15.4934 14.4173 15.5175 14.3569C15.433 14.3328 12.981 13.3302 12.981 10.5159C12.981 8.07595 14.9136 6.97677 15.0223 6.89222C13.742 5.05624 11.7973 5.00792 11.2658 5.00792C9.82841 5.00792 8.65677 5.8776 7.91996 5.8776C7.12276 5.8776 6.0719 5.05624 4.82778 5.05624C2.46033 5.05624 0.0566406 7.01301 0.0566406 10.7091C0.0566406 13.0041 0.950474 15.432 2.04965 17.0022C2.9918 18.3309 3.81316 19.418 4.99688 19.418Z" fill="white"/>
</svg>
