<svg width="20" height="24" viewBox="0 0 20 24" fill="none" xmlns="http://www.w3.org/2000/svg">
<path id="Subtract" fill-rule="evenodd" clip-rule="evenodd" d="M16.7415 9.18485C16.7604 9.35687 16.7733 9.53063 16.7798 9.70583L16.7805 9.72488L16.7808 9.74394L16.7847 9.96369L16.785 9.98153L16.785 9.99938C16.785 11.2798 16.9007 11.9674 17.0719 12.4325C17.2266 12.8528 17.4776 13.2325 18.0474 13.7974C18.41 14.1569 18.7264 14.5881 18.9526 15.0418C19.1489 15.4358 19.4151 16.1204 19.302 16.9014C19.1802 17.7427 18.7053 18.3401 18.2466 18.7177C17.8068 19.0797 17.3063 19.308 16.8782 19.4605C16.0208 19.7659 15.0071 19.9199 14.1118 20.0064C12.5514 20.1573 10.9056 20.1378 10.2011 20.1295H10.2011H10.201L10.2006 20.1294C10.087 20.1281 9.99794 20.127 9.93769 20.127C9.87744 20.127 9.78836 20.1281 9.67475 20.1294L9.67434 20.1295H9.67427H9.67423C8.96978 20.1378 7.32398 20.1573 5.76355 20.0064C4.86828 19.9199 3.85463 19.7659 2.99713 19.4605C2.56907 19.308 2.06859 19.0797 1.62874 18.7177C1.17003 18.3401 0.695227 17.7427 0.573411 16.9014C0.460324 16.1204 0.726432 15.4358 0.922799 15.0418C1.14895 14.5881 1.46538 14.1569 1.82799 13.7974C2.40457 13.2258 2.64371 12.8699 2.7901 12.4939C2.95082 12.081 3.06805 11.465 3.08814 10.2669L3.09046 9.9824C3.09243 8.40743 3.61439 6.93665 4.35683 5.78059C4.93939 4.87347 5.74765 4.02472 6.71522 3.49537C7.07919 2.01339 8.39698 0.979904 9.93768 0.979904C10.0211 0.979904 10.104 0.982938 10.186 0.988912C10.0392 1.53135 9.96094 2.10193 9.96094 2.6908C9.96094 2.78778 9.96306 2.88427 9.96727 2.98022C9.95743 2.98001 9.94757 2.9799 9.93768 2.9799C9.21189 2.9799 8.61564 3.5345 8.61564 4.32891C8.61564 4.65967 8.40618 4.95415 8.09372 5.06266C6.62061 5.57425 5.09048 7.70466 5.09046 9.99127L5.088 10.2917C5.04574 12.873 4.58991 13.8755 3.23608 15.2177C2.80644 15.6437 2.49796 16.2363 2.55277 16.6148C2.78309 18.2054 8.03404 18.1473 9.62721 18.1296C9.75623 18.1282 9.86126 18.127 9.93769 18.127C10.0141 18.127 10.1192 18.1282 10.2482 18.1296C11.8413 18.1473 17.0923 18.2054 17.3226 16.6148C17.3774 16.2363 17.0689 15.6437 16.6393 15.2177C15.2604 13.8507 14.7849 12.7393 14.785 9.99928L14.7811 9.77954C14.7707 9.4975 14.7369 9.21821 14.6828 8.94459C15.2479 9.10496 15.8444 9.1908 16.4609 9.1908C16.5549 9.1908 16.6485 9.1888 16.7415 9.18485ZM11.3752 20.8913L8.50677 20.8752C8.41509 21.0742 8.35918 21.2938 8.3585 21.5267C8.35321 22.3995 9.05643 23.1102 9.92858 23.1147C10.8012 23.1205 11.5118 22.4162 11.5164 21.5441C11.5173 21.3103 11.4647 21.0904 11.3752 20.8913Z" fill="#343434"/>
</svg>
