<svg width="20" height="20" viewBox="0 0 20 20" fill="none" xmlns="http://www.w3.org/2000/svg">
<path d="M19.6941 10.1455C19.6941 9.48821 19.6408 8.82733 19.5271 8.18066H10.4062V11.9043H15.6293C15.4126 13.1053 14.7162 14.1677 13.6964 14.8428V17.2589H16.8125C18.6424 15.5747 19.6941 13.0875 19.6941 10.1455Z" fill="#4285F4"/>
<path d="M10.4068 19.5932C13.0148 19.5932 15.2142 18.7369 16.8166 17.2588L13.7005 14.8427C12.8336 15.4325 11.7143 15.7665 10.4104 15.7665C7.88764 15.7665 5.74867 14.0646 4.98119 11.7764H1.76562V14.2671C3.40716 17.5324 6.75064 19.5932 10.4068 19.5932Z" fill="#34A853"/>
<path d="M4.97697 11.7761C4.57191 10.5751 4.57191 9.27469 4.97697 8.07374V5.58301H1.76495C0.393453 8.31535 0.393453 11.5345 1.76495 14.2668L4.97697 11.7761Z" fill="#FBBC04"/>
<path d="M10.4068 4.08028C11.7854 4.05897 13.1178 4.57772 14.1162 5.52995L16.877 2.76919C15.1289 1.12765 12.8087 0.225156 10.4068 0.253581C6.75064 0.253581 3.40716 2.31439 1.76562 5.58325L4.97764 8.07398C5.74156 5.78223 7.88409 4.08028 10.4068 4.08028Z" fill="#EA4335"/>
</svg>
