<svg width="18" height="21" viewBox="0 0 18 21" fill="none" xmlns="http://www.w3.org/2000/svg">
<path fill-rule="evenodd" clip-rule="evenodd" d="M12.7459 9.81752C15.5615 9.81752 17.8439 12.1 17.8439 14.9156V16.1497C17.8439 17.1947 17.7364 17.7514 17.4262 18.3315C17.1362 18.8738 16.7041 19.3059 16.1618 19.5959C15.5816 19.9062 15.0249 20.0137 13.98 20.0137H4.82683C3.78191 20.0137 3.22521 19.9062 2.64508 19.5959C2.10277 19.3059 1.67068 18.8738 1.38065 18.3315C1.07039 17.7514 0.962891 17.1947 0.962891 16.1497V14.9156C0.962891 12.1 3.24538 9.81752 6.06097 9.81752H12.7459ZM12.7459 11.9859H6.06097C4.44294 11.9859 3.13128 13.2976 3.13128 14.9156V16.1497C3.13128 16.8673 3.17348 17.0858 3.29277 17.3089C3.3807 17.4733 3.50326 17.5959 3.66769 17.6838C3.89074 17.8031 4.10926 17.8453 4.82683 17.8453L14.1637 17.8442C14.7373 17.837 14.9364 17.7922 15.1392 17.6838C15.3036 17.5959 15.4261 17.4733 15.5141 17.3089C15.6334 17.0858 15.6756 16.8673 15.6756 16.1497V14.9156C15.6756 13.2976 14.3639 11.9859 12.7459 11.9859ZM9.40342 0.0136719C11.9296 0.0136719 13.9774 2.06152 13.9774 4.58768C13.9774 7.11383 11.9296 9.16168 9.40342 9.16168C6.87727 9.16168 4.82941 7.11383 4.82941 4.58768C4.82941 2.06152 6.87727 0.0136719 9.40342 0.0136719ZM9.40342 2.18206C8.07483 2.18206 6.9978 3.25909 6.9978 4.58768C6.9978 5.91627 8.07483 6.9933 9.40342 6.9933C10.732 6.9933 11.809 5.91627 11.809 4.58768C11.809 3.25909 10.732 2.18206 9.40342 2.18206Z" fill="#343434"/>
</svg>
