<svg width="20" height="20" viewBox="0 0 20 20" fill="none" xmlns="http://www.w3.org/2000/svg">
<path d="M10.85 0.726299C13.2829 0.999072 15.5041 2.20664 17.0464 4.09995L17.1997 2.34698C17.2444 1.8361 17.6658 1.44868 18.1663 1.43448L18.283 1.43794C18.7939 1.48264 19.1813 1.90405 19.1955 2.40453L19.1921 2.52129L18.8233 6.73586C18.7786 7.24675 18.3572 7.63416 17.8567 7.64836L17.74 7.6449L13.5254 7.27618C12.9752 7.22804 12.5682 6.74301 12.6164 6.19282C12.6611 5.68194 13.0825 5.29452 13.583 5.28032L13.6997 5.28379L15.5626 5.44635C14.3485 3.91128 12.5756 2.9323 10.6272 2.71385C9.89603 2.63187 9.15662 2.65993 8.43342 2.79892C7.63799 2.95178 6.86925 3.2373 6.15168 3.65159C2.64555 5.67586 1.44426 10.1591 3.46853 13.6653C5.49279 17.1714 9.97608 18.3727 13.4822 16.3484C15.2236 15.343 16.4449 13.7001 16.926 11.7883C17.0608 11.2527 17.6042 10.9278 18.1398 11.0626C18.6754 11.1974 19.0003 11.7408 18.8655 12.2764C18.2537 14.7076 16.697 16.8018 14.4822 18.0805C10.0195 20.657 4.31303 19.128 1.73647 14.6653C-0.840079 10.2026 0.688962 4.49609 5.15168 1.91954C6.06303 1.39337 7.04228 1.02967 8.05597 0.834859C8.97773 0.657715 9.91951 0.621976 10.85 0.726299ZM9.81695 5.64871C10.3298 5.64871 10.7525 6.03475 10.8102 6.53209L10.8169 6.64871L10.816 9.56601L13.5857 11.2008C14.0273 11.4615 14.1951 12.0088 13.992 12.4665L13.9385 12.5703C13.6778 13.0119 13.1305 13.1797 12.6728 12.9766L12.569 12.9231L9.30859 10.9984C9.04199 10.841 8.86553 10.5706 8.82558 10.2684L8.81695 10.1372V6.64871C8.81695 6.09642 9.26466 5.64871 9.81695 5.64871Z" fill="#343434"/>
</svg>
