<svg width="22" height="22" viewBox="0 0 22 22" fill="none" xmlns="http://www.w3.org/2000/svg">
<path d="M9.42767 0.189453C14.169 0.189453 18.0126 4.03304 18.0126 8.77435C18.0126 10.7489 17.346 12.5677 16.2256 14.018L21.5375 19.3304C21.9913 19.7843 21.9913 20.5201 21.5375 20.974C21.112 21.3995 20.4386 21.4261 19.9822 21.0538L19.8939 20.974L14.5692 15.6499C13.136 16.7234 11.3561 17.3592 9.42767 17.3592C4.68636 17.3592 0.842773 13.5157 0.842773 8.77435C0.842773 4.03304 4.68636 0.189453 9.42767 0.189453ZM9.42767 2.51383C5.97008 2.51383 3.16715 5.31676 3.16715 8.77435C3.16715 12.2319 5.97008 15.0349 9.42767 15.0349C12.8853 15.0349 15.6882 12.2319 15.6882 8.77435C15.6882 5.31676 12.8853 2.51383 9.42767 2.51383Z" fill="#343434"/>
</svg>
