<svg width="11" height="22" viewBox="0 0 11 22" fill="none" xmlns="http://www.w3.org/2000/svg">
<path fill-rule="evenodd" clip-rule="evenodd" d="M10.5568 0.804991L7.93294 0.800781C4.9851 0.800781 3.08007 2.75527 3.08007 5.78037V8.07629H0.441877C0.213906 8.07629 0.0292969 8.26111 0.0292969 8.48908V11.8156C0.0292969 12.0436 0.214116 12.2282 0.441877 12.2282H3.08007V20.6221C3.08007 20.8501 3.26468 21.0347 3.49265 21.0347H6.93475C7.16272 21.0347 7.34733 20.8498 7.34733 20.6221V12.2282H10.432C10.66 12.2282 10.8446 12.0436 10.8446 11.8156L10.8458 8.48908C10.8458 8.37962 10.8023 8.27479 10.725 8.19733C10.6478 8.11986 10.5425 8.07629 10.433 8.07629H7.34733V6.13001C7.34733 5.19455 7.57025 4.71966 8.78883 4.71966L10.5564 4.71903C10.7842 4.71903 10.9688 4.53421 10.9688 4.30645V1.21757C10.9688 0.990021 10.7844 0.805412 10.5568 0.804991Z" fill="white"/>
</svg>
