<svg width="42" height="42" viewBox="0 0 42 42" fill="none" xmlns="http://www.w3.org/2000/svg">
<g clip-path="url(#clip0)">
<path fill-rule="evenodd" clip-rule="evenodd" d="M35.5679 34.4581V7.40724C35.5679 4.97953 33.6076 3.01148 31.1894 3.01148H10.9812C8.56305 3.01148 6.60275 4.97953 6.60275 7.40724V34.4581C6.60275 36.8858 8.56305 38.8539 10.9812 38.8539H31.1894C33.6076 38.8539 35.5679 36.8858 35.5679 34.4581ZM10.9812 0.644531C7.26096 0.644531 4.24512 3.6723 4.24512 7.40724V34.4581C4.24512 38.193 7.26096 41.2208 10.9812 41.2208H31.1894C34.9097 41.2208 37.9255 38.193 37.9255 34.4581V7.40724C37.9255 3.6723 34.9097 0.644531 31.1894 0.644531H10.9812Z" fill="#D67A46"/>
<path fill-rule="evenodd" clip-rule="evenodd" d="M4.24512 28.203C4.24512 27.5494 4.77289 27.0195 5.42393 27.0195H36.7467C37.3978 27.0195 37.9255 27.5494 37.9255 28.203C37.9255 28.8566 37.3978 29.3865 36.7467 29.3865H5.42393C4.77289 29.3865 4.24512 28.8566 4.24512 28.203Z" fill="#D67A46"/>
<path fill-rule="evenodd" clip-rule="evenodd" d="M21.4218 15.8613C22.0728 15.8613 22.6006 16.3912 22.6006 17.0448L22.6006 38.3473C22.6006 39.001 22.0728 39.5308 21.4218 39.5308C20.7707 39.5308 20.243 39.001 20.243 38.3473L20.243 17.0448C20.243 16.3912 20.7707 15.8613 21.4218 15.8613Z" fill="#D67A46"/>
<path fill-rule="evenodd" clip-rule="evenodd" d="M10.9812 0.644531C7.26096 0.644531 4.24512 3.6723 4.24512 7.40724V17.5513H37.9255V7.40724C37.9255 3.6723 34.9097 0.644531 31.1894 0.644531H29.5054H12.6652H10.9812ZM25.5888 11.9585H27.9936V13.1555H23.6892V12.2426L26.0233 9.48339C26.4544 8.98971 26.6699 8.52646 26.6699 8.09365C26.6699 7.8299 26.5857 7.62364 26.4173 7.47486C26.2557 7.31932 26.0502 7.24155 25.801 7.24155C25.5585 7.24155 25.3564 7.31932 25.1947 7.47486C25.0398 7.62364 24.9522 7.8299 24.932 8.09365H23.6791C23.6791 7.49177 23.8913 7.00485 24.3157 6.6329C24.7468 6.25419 25.2655 6.06483 25.8717 6.06483C26.5049 6.06483 27.027 6.26095 27.4379 6.65319C27.8622 7.03867 28.0744 7.51882 28.0744 8.09365C28.0744 8.39121 28.0104 8.682 27.8824 8.96604C27.741 9.27712 27.6164 9.50706 27.5086 9.65584C27.3941 9.81138 27.2324 10.0143 27.0236 10.2645L25.5888 11.9585ZM20.1221 6.15613H21.3952V13.1555H19.9806V7.63717L18.9803 8.29653V6.92708L20.1221 6.15613ZM30.5907 10.1428H31.106C31.8201 10.1428 32.1771 10.4707 32.1771 11.1267C32.1771 11.3972 32.0929 11.6204 31.9245 11.7962C31.7628 11.9653 31.5439 12.0498 31.2677 12.0498C30.6682 12.0498 30.3247 11.7929 30.2371 11.2789H28.9943C29.0212 11.874 29.2435 12.3508 29.6612 12.7092C30.0788 13.0676 30.6446 13.2468 31.3586 13.2468C32.0457 13.2468 32.588 13.0541 32.9854 12.6686C33.3828 12.2696 33.5816 11.7793 33.5816 11.1977C33.5816 10.4268 33.2313 9.86886 32.5307 9.52396C33.1639 9.17906 33.4805 8.66848 33.4805 7.99221C33.4805 7.45795 33.2683 7.00485 32.844 6.6329C32.4263 6.25419 31.9043 6.06483 31.2778 6.06483C30.6716 6.06483 30.1596 6.24405 29.742 6.60247C29.3378 6.95413 29.1189 7.41738 29.0852 7.99221H30.3381C30.3718 7.76228 30.4661 7.57968 30.621 7.44443C30.776 7.30917 30.9713 7.24155 31.2071 7.24155C31.4631 7.24155 31.6719 7.31932 31.8335 7.47486C31.9952 7.62364 32.076 7.81638 32.076 8.05307C32.076 8.33711 31.9885 8.55689 31.8133 8.71244C31.6449 8.86798 31.4092 8.94575 31.106 8.94575H30.5907V10.1428Z" fill="#D67A46"/>
<path d="M12.4774 22.4547H10.8389V21.1765H12.4774V19.5078H13.7741V21.1765H15.4245V22.4547H13.7741V24.1115H12.4774V22.4547Z" fill="#D67A46"/>
<path d="M12.3194 33.7274L11.1608 32.5642L12.061 31.6604L13.2197 32.8236L14.395 31.6437L15.3119 32.5642L14.1366 33.7442L15.3035 34.9157L14.4033 35.8195L13.2363 34.6479L12.0694 35.8195L11.1525 34.899L12.3194 33.7274Z" fill="#D67A46"/>
<path d="M30.6938 22.7396H27.6406V21.4141H30.6938V22.7396Z" fill="#D67A46"/>
<path d="M31.4674 33.5901H26.8818V32.1699H31.4674V33.5901ZM31.4674 35.6848H26.8818V34.2765H31.4674V35.6848Z" fill="#D67A46"/>
</g>
<defs>
<clipPath id="clip0">
<rect width="40.4165" height="40.5763" fill="white" transform="translate(0.876953 0.644531)"/>
</clipPath>
</defs>
</svg>
