<svg width="20" height="24" viewBox="0 0 20 24" fill="none" xmlns="http://www.w3.org/2000/svg">
<path fill-rule="evenodd" clip-rule="evenodd" d="M14.8473 9.99929C14.8472 12.7393 15.3226 13.8507 16.7016 15.2177C17.1312 15.6437 17.4397 16.2363 17.3849 16.6148C17.1545 18.2054 11.9036 18.1473 10.3104 18.1296C10.1814 18.1282 10.0764 18.1271 9.99995 18.1271C9.92351 18.1271 9.81848 18.1282 9.68947 18.1296C8.09629 18.1473 2.84534 18.2054 2.61502 16.6148C2.56021 16.2363 2.86869 15.6437 3.29834 15.2177C4.65217 13.8755 5.108 12.873 5.15026 10.2917L5.15271 9.99127C5.15274 7.70467 6.68286 5.57425 8.15597 5.06267C8.46843 4.95416 8.67789 4.65968 8.67789 4.32892C8.67789 3.53451 9.27414 2.97991 9.99993 2.97991C10.7257 2.97991 11.322 3.53451 11.322 4.32892C11.322 4.65968 11.5315 4.95416 11.8439 5.06267C13.2611 5.55482 14.7624 7.58356 14.8434 9.77954L14.8473 9.99929ZM3.15272 9.98241L3.15039 10.2669C3.1303 11.465 3.01308 12.081 2.85236 12.4939C2.70597 12.87 2.46682 13.2258 1.89024 13.7974C1.52764 14.1569 1.2112 14.5881 0.985055 15.0418C0.788688 15.4358 0.52258 16.1204 0.635667 16.9014C0.757483 17.7427 1.23229 18.3401 1.691 18.7177C2.13085 19.0797 2.63132 19.308 3.05939 19.4605C3.91689 19.766 4.93054 19.9199 5.8258 20.0064C7.38631 20.1573 9.0322 20.1378 9.73659 20.1295C9.8504 20.1281 9.93962 20.1271 9.99995 20.1271C10.0603 20.1271 10.1495 20.1281 10.2633 20.1295C10.9677 20.1378 12.6136 20.1573 14.1741 20.0064C15.0694 19.9199 16.083 19.766 16.9405 19.4605C17.3686 19.308 17.869 19.0797 18.3089 18.7177C18.7676 18.3401 19.2424 17.7427 19.3642 16.9014C19.4773 16.1204 19.2112 15.4358 19.0148 15.0418C18.7887 14.5881 18.4723 14.1569 18.1096 13.7974C17.5399 13.2325 17.2889 12.8528 17.1342 12.4325C16.963 11.9674 16.8472 11.2798 16.8473 9.99939L16.8473 9.98154L16.8427 9.72489L16.842 9.70584C16.786 8.18811 16.2467 6.77872 15.5084 5.67214C14.9349 4.81261 14.1522 4.00616 13.2226 3.4961C12.8589 2.01371 11.5409 0.97991 9.99993 0.97991C8.45923 0.97991 7.14145 2.0134 6.77747 3.49538C5.8099 4.02473 5.00165 4.87348 4.41909 5.78059C3.67665 6.93666 3.15468 8.40743 3.15272 9.98241Z" fill="#343434"/>
<path d="M11.4374 20.8913L8.56895 20.8752C8.47727 21.0742 8.42137 21.2938 8.42068 21.5267C8.41539 22.3995 9.11861 23.1102 9.99076 23.1147C10.8634 23.1205 11.574 22.4162 11.5786 21.5441C11.5795 21.3103 11.5269 21.0904 11.4374 20.8913Z" fill="#343434"/>
</svg>
