<svg width="17" height="16" viewBox="0 0 17 16" fill="none" xmlns="http://www.w3.org/2000/svg">
<path d="M14.5531 0.698093C14.9548 0.37046 15.5474 0.393863 15.9218 0.7683C16.3212 1.1677 16.3212 1.81525 15.9218 2.21465L9.94534 8.19075L15.9218 14.1669C16.3212 14.5663 16.3212 15.2138 15.9218 15.6132C15.5474 15.9877 14.9548 16.0111 14.5531 15.6834L14.4755 15.6132L8.49934 9.63675L2.52325 15.6132L2.44557 15.6834C2.04387 16.0111 1.45133 15.9877 1.07689 15.6132C0.677494 15.2138 0.677494 14.5663 1.07689 14.1669L7.05334 8.19075L1.07689 2.21465C0.677494 1.81525 0.677494 1.1677 1.07689 0.7683C1.45133 0.393863 2.04387 0.37046 2.44557 0.698093L2.52325 0.7683L8.49934 6.74475L14.4755 0.7683L14.5531 0.698093Z" fill="#343434"/>
</svg>
