<svg width="14" height="18" viewBox="0 0 14 18" fill="none" xmlns="http://www.w3.org/2000/svg">
<path d="M6.66586 0.306641C8.84957 0.306641 10.6198 2.07688 10.6198 4.26059L10.6192 6.34782L10.7342 6.34839C11.9688 6.34839 12.978 7.31346 13.0485 8.53036L13.0524 8.66657V14.8633C13.0524 16.1436 12.0145 17.1815 10.7342 17.1815H2.59748C1.31718 17.1815 0.279297 16.1436 0.279297 14.8633V8.66657C0.279297 7.38627 1.31718 6.34839 2.59748 6.34839L2.71184 6.34782L2.71192 4.26059C2.71192 2.13287 4.39254 0.397694 6.49872 0.310109L6.66586 0.306641ZM10.7342 7.89384H2.59748C2.17071 7.89384 1.82475 8.23981 1.82475 8.66657V14.8633C1.82475 15.29 2.17071 15.636 2.59748 15.636H10.7342C11.161 15.636 11.507 15.29 11.507 14.8633V8.66657C11.507 8.23981 11.161 7.89384 10.7342 7.89384ZM6.66586 10.1756C7.09263 10.1756 7.43859 10.5216 7.43859 10.9483C7.43859 11.2343 7.28324 11.484 7.05233 11.6176L7.05223 13.3542C7.05223 13.5676 6.87924 13.7406 6.66586 13.7406C6.47619 13.7406 6.31844 13.6039 6.28572 13.4237L6.2795 13.3542L6.27864 11.6172C6.04814 11.4835 5.89313 11.234 5.89313 10.9483C5.89313 10.5216 6.2391 10.1756 6.66586 10.1756ZM6.66586 1.8521C5.33569 1.8521 4.25737 2.93041 4.25737 4.26059L4.25727 6.3477H9.07368L9.07435 4.26059C9.07435 2.97628 8.06912 1.92676 6.80253 1.85591L6.66586 1.8521Z" fill="#343434"/>
</svg>
