<svg width="305" height="42" viewBox="0 0 305 42" fill="none" xmlns="http://www.w3.org/2000/svg">
<path d="M229.356 1.28625V40.1716H237.016V27.4916H243.825C247.513 27.4916 250.634 26.3645 253.471 23.8285C256.024 21.2925 257.443 18.1929 257.443 14.5298C257.443 10.8667 256.024 7.76712 253.471 5.23112C250.918 2.69512 247.797 1.568 243.825 1.568H229.356V1.28625ZM237.3 20.4471V8.61245H244.109C245.811 8.61245 247.23 9.17602 248.081 10.3031C249.215 11.4302 249.783 12.8391 249.783 14.5298C249.783 16.2205 249.215 17.6294 248.081 18.7565C246.946 19.8836 245.527 20.4471 244.109 20.4471H237.3ZM286.096 37.9174C288.65 35.9449 290.068 32.8454 290.068 29.464C290.068 28.3369 290.068 27.2098 289.784 26.3645C289.501 25.5191 289.217 24.6738 288.65 23.8285C288.366 23.2649 287.798 22.4196 286.947 21.856C286.096 21.2924 285.529 20.7289 284.961 20.4471C284.394 20.1653 283.543 19.6018 282.408 19.32C281.273 18.7565 280.422 18.4747 279.855 18.4747C279.287 18.1929 278.436 17.9111 277.018 17.6293C274.181 16.784 272.195 15.9387 271.06 15.0933C269.925 14.248 269.642 13.4027 269.642 11.9938C269.642 10.8667 270.209 10.0213 271.06 9.17599C271.911 8.33066 273.33 8.0489 274.748 8.0489C278.153 8.0489 280.706 9.73958 282.124 13.1209L288.65 9.45779C287.231 6.64001 285.529 4.66756 282.976 2.97689C280.706 1.568 277.869 0.722656 274.748 0.722656C271.344 0.722656 268.223 1.84979 265.67 3.82223C263.117 5.79468 261.982 8.61245 261.982 12.2756C261.982 13.9662 262.266 15.6569 262.833 17.0658C263.4 18.4747 264.251 19.6018 265.67 20.4471C266.805 21.2924 268.223 22.1378 269.358 22.4196C270.493 22.9831 271.911 23.5467 273.897 24.1102C277.018 24.9556 279.287 25.8009 280.422 26.6463C281.557 27.4916 282.408 28.3369 282.408 29.7458C282.408 30.8729 281.841 32.0001 280.99 32.5636C280.139 33.1272 278.436 33.6907 276.167 33.6907C271.628 33.6907 268.791 31.7182 267.088 27.7734L260.563 31.7182C261.698 34.8178 263.4 37.072 266.237 38.7627C268.791 40.4533 272.195 41.2987 276.167 41.2987C280.139 41.0169 283.543 39.8898 286.096 37.9174Z" fill="#007360"/>
<path d="M297.161 40.1724H304.821V1.28711H297.161V40.1724Z" fill="#007360"/>
<path d="M23.7134 15.3564C21.3694 12.6956 18.3555 11.3652 14.3371 11.3652C10.6535 11.3652 7.30481 12.6957 4.62585 15.6891C1.94689 18.6825 0.607422 22.0085 0.607422 26.3323C0.607422 30.6562 1.94689 33.9822 4.62585 36.9756C7.30481 39.969 10.6535 41.2995 14.3371 41.2995C18.3555 41.2995 21.3694 39.969 23.7134 37.3082V40.6342H31.0806V12.3631H23.7134V15.3564ZM7.97455 26.3323C7.97455 24.0041 8.6443 22.0085 10.3187 20.6781C11.6581 19.3477 13.6673 18.3499 16.0114 18.3499C18.3555 18.3499 20.0299 19.0151 21.7042 20.6781C23.0437 22.0085 24.0483 24.0041 24.0483 26.3323C24.0483 28.6605 23.3786 30.6561 21.7042 31.9866C20.3647 33.317 18.3555 34.3148 16.0114 34.3148C13.6673 34.3148 11.993 33.6496 10.3187 31.9866C8.97917 30.3235 7.97455 28.6605 7.97455 26.3323ZM43.8056 12.0304H36.4385V40.3016H43.8056V26.9975C43.8056 24.3367 44.8102 22.3411 46.4846 21.3433C48.1589 20.3455 50.1682 19.6803 52.5122 20.0129V12.0304C50.503 12.0304 48.8287 12.3631 47.1543 13.3609C45.48 14.3587 44.4754 15.6891 43.8056 17.3521V12.0304Z" fill="#3B3A3A"/>
<path d="M72.6043 12.0313H66.2417V4.04883L58.8746 6.37703V12.0313H53.8516V19.0159H58.8746V30.657C58.8746 34.6482 59.8792 37.309 61.8884 38.6394C63.8977 40.3024 67.5812 40.635 72.6043 39.9698V33.3178C71.2648 33.3178 69.9253 33.3178 69.2556 33.3178C68.251 33.3178 67.5812 32.9852 67.2464 32.6526C66.9115 32.32 66.5766 31.6548 66.5766 30.657V19.0159H72.9391V12.0313H72.6043ZM100.064 15.3573C98.3892 12.6965 95.7103 11.3661 92.3616 11.3661C88.678 11.3661 86.3339 12.6965 84.3247 15.0247V12.0313H76.9576V40.3024H84.3247V24.6701C84.3247 22.6745 84.6596 21.0115 85.6642 20.0137C86.6688 19.0159 88.0083 18.3507 89.6826 18.3507C91.357 18.3507 92.3616 18.6833 93.0313 19.6811C93.7011 20.6789 94.3708 22.0093 94.3708 23.6723V40.6351H101.738V25.0028C101.738 23.0072 102.073 21.3441 103.077 20.3463C104.082 19.3485 105.422 18.6833 107.096 18.6833C108.77 18.6833 109.775 19.0159 110.445 20.0137C111.114 21.0115 111.784 22.3419 111.784 24.005V40.9677H119.151V23.6723C119.151 20.0137 118.147 17.3529 116.137 15.3573C114.128 13.3617 111.449 12.3639 108.435 12.3639C104.752 11.3661 101.738 12.6965 100.064 15.3573ZM151.634 28.994C151.968 27.9962 151.968 26.9984 151.968 26.0006C151.968 21.6768 150.629 18.3507 147.95 15.3573C145.271 12.3639 141.922 11.0335 137.569 11.0335C133.216 11.0335 129.532 12.3639 126.853 15.3573C124.174 18.3507 122.5 21.6768 122.5 26.0006C122.5 30.3244 123.839 33.6504 126.853 36.6438C129.532 39.3047 133.551 40.9677 138.239 40.9677C143.597 40.9677 147.95 38.9721 150.629 34.9808L144.601 31.6548C143.262 33.6504 140.918 34.3156 138.239 34.3156C133.885 34.3156 131.206 32.6526 130.202 28.994H151.634ZM132.881 19.3485C134.22 18.3507 135.895 18.0181 137.904 18.0181C139.578 18.0181 140.918 18.3507 142.257 19.3485C143.597 20.3464 144.266 21.6767 144.936 23.6723H130.537C130.537 21.6767 131.541 20.3464 132.881 19.3485Z" fill="#3B3A3A"/>
<path d="M177.084 15.3571C175.074 12.6963 171.726 11.3659 168.042 11.3659C164.359 11.3659 161.01 12.6963 158.331 15.6898C155.652 18.6832 154.312 22.0092 154.312 26.333C154.312 30.6568 155.652 33.9828 158.331 36.9763C161.01 39.9697 164.359 41.3002 168.042 41.3002C172.061 41.3002 175.074 39.9697 177.084 37.3089V40.6349H184.451V0.722656H177.084V15.3571ZM161.345 26.333C161.345 24.0048 162.014 22.0092 163.689 20.6788C165.028 19.3484 167.038 18.3506 169.382 18.3506C171.726 18.3506 173.4 19.0158 175.074 20.6788C176.414 22.0092 177.419 24.0048 177.419 26.333C177.419 28.6612 176.749 30.6568 175.074 31.9872C173.735 33.3176 171.726 34.3155 169.382 34.3155C167.038 34.3155 165.363 33.6502 163.689 31.9872C162.349 30.3242 161.345 28.6612 161.345 26.333Z" fill="#3B3A3A"/>
<path d="M221.302 22.6758H206.902V28.6626H221.302V22.6758Z" fill="#007360" fill-opacity="0.3"/>
<path d="M209.917 25.668H203.89V39.9698H209.917V25.668Z" fill="#007360" fill-opacity="0.7"/>
<path d="M209.918 28.6619H192.505V22.6751H203.89V11.6992H209.918V28.6619Z" fill="#007360"/>
</svg>
