<svg width="353" height="42" viewBox="0 0 353 42" fill="none" xmlns="http://www.w3.org/2000/svg">
<path d="M23.607 15.1377C21.2629 12.4769 18.2491 11.1465 14.2306 11.1465C10.5471 11.1465 7.19836 12.4769 4.5194 15.4703C1.84045 18.4637 0.500977 21.7898 0.500977 26.1136C0.500977 30.4374 1.84045 33.7634 4.5194 36.7568C7.19836 39.7503 10.5471 41.0807 14.2306 41.0807C18.2491 41.0807 21.2629 39.7503 23.607 37.0895V40.4155H30.9741V12.1443H23.607V15.1377ZM7.8681 25.781C7.8681 23.4528 8.53786 21.4571 10.2122 20.1267C11.5517 18.7963 13.5609 17.7985 15.905 17.7985C18.2491 17.7985 19.9234 18.4637 21.5978 20.1267C22.9373 21.4571 23.9419 23.4528 23.9419 25.781C23.9419 28.1092 23.2721 30.1048 21.5978 31.4352C20.2583 32.7656 18.2491 33.7634 15.905 33.7634C13.5609 33.7634 11.8866 33.0982 10.2122 31.4352C8.87272 30.1048 7.8681 28.1092 7.8681 25.781ZM43.6992 11.8117H36.332V40.0829H43.6992V26.7788C43.6992 24.118 44.7038 22.1224 46.3781 21.1245C48.0525 20.1267 50.0617 19.4616 52.4058 19.7942V11.8117C50.3966 11.8117 48.7222 12.1443 47.0479 13.1421C45.3735 14.1399 44.3689 15.4703 43.6992 17.1333V11.8117Z" fill="#F8F8F8"/>
<path d="M72.4978 11.8125H66.1353V3.83008L58.7682 6.15828V11.8125H53.7451V18.7972H58.7682V30.4382C58.7682 34.4295 59.7728 37.0903 61.782 38.4207C63.7912 40.0837 67.4748 40.4163 72.4978 39.7511V33.0991C71.1583 33.0991 69.8189 33.0991 69.1491 33.0991C68.1445 33.0991 67.4748 32.7665 67.1399 32.4339C66.805 32.1013 66.4702 31.436 66.4702 30.4382V18.7972H72.8327V11.8125H72.4978ZM99.9571 14.806C98.2828 12.1451 95.6038 10.8147 92.2551 10.8147C88.5716 10.8147 86.2275 12.1451 84.2183 14.4733V11.4799H76.8511V39.7511H84.2183V24.1188C84.2183 22.1232 84.5531 20.4602 85.5577 19.4624C86.5624 18.4646 87.9018 17.7994 89.5762 17.7994C91.2505 17.7994 92.2551 18.132 92.9249 19.1298C93.5946 20.1276 94.2644 21.458 94.2644 23.121V40.0837H101.631V24.4514C101.631 22.4558 101.966 20.7928 102.971 19.795C103.976 18.7972 105.315 18.132 106.989 18.132C108.664 18.132 109.668 18.4646 110.338 19.4624C111.008 20.4602 111.678 21.7906 111.678 23.4536V40.4163H119.045V23.121C119.045 19.4624 118.04 16.8016 116.031 14.806C114.022 12.8103 111.343 11.8125 108.329 11.8125C104.645 10.8147 101.631 12.1451 99.9571 14.806ZM151.527 28.7752C151.862 27.7774 151.862 26.7796 151.862 25.7818C151.862 21.458 150.522 18.1319 147.844 15.1385C145.165 12.1451 141.816 10.8147 137.463 10.8147C133.109 10.8147 129.426 12.1451 126.747 15.1385C124.068 18.1319 122.393 21.458 122.393 25.7818C122.393 30.1057 123.733 33.4317 126.747 36.4251C129.426 39.0859 133.444 40.7489 138.132 40.7489C143.49 40.7489 147.844 38.7533 150.522 34.7621L144.495 31.4361C143.155 33.4317 140.811 34.0969 138.132 34.0969C133.779 34.0969 131.1 32.4339 130.095 28.7752H151.527ZM132.774 18.7972C134.114 17.7994 135.788 17.4668 137.797 17.4668C139.472 17.4668 140.811 17.7994 142.151 18.7972C143.49 19.795 144.16 21.1254 144.83 23.121H130.43C130.43 21.458 131.435 19.795 132.774 18.7972Z" fill="#F8F8F8"/>
<path d="M176.977 15.1384C174.968 12.4776 171.619 11.1472 167.936 11.1472C164.252 11.1472 160.903 12.4776 158.224 15.471C155.546 18.4644 154.206 21.7904 154.206 26.1143C154.206 30.4381 155.546 33.7641 158.224 36.7575C160.903 39.7509 164.252 41.0813 167.936 41.0813C171.954 41.0813 174.968 39.7509 176.977 37.0901V40.4161H184.344V0.503906H176.977V15.1384ZM161.238 25.7817C161.238 23.4535 161.908 21.4578 163.582 20.1274C164.922 18.797 166.931 17.7992 169.275 17.7992C171.619 17.7992 173.294 18.4644 174.968 20.1274C176.307 21.4578 177.312 23.4535 177.312 25.7817C177.312 28.1099 176.642 30.1055 174.968 31.4359C173.629 32.7663 171.619 33.7641 169.275 33.7641C166.931 33.7641 165.257 33.0989 163.582 31.4359C162.243 30.1055 161.238 28.1099 161.238 25.7817Z" fill="#F8F8F8"/>
<path d="M221.768 22.4551H207.368V28.4419H221.768V22.4551Z" fill="#85AAFF"/>
<path d="M210.383 25.4492H204.355V39.7511H210.383V25.4492Z" fill="#7AA2FE"/>
<path d="M210.384 28.4418H192.971V22.455H204.356V11.1465H210.384V28.4418Z" fill="#5281EE"/>
<path fill-rule="evenodd" clip-rule="evenodd" d="M236.001 6.35246C232.147 10.1805 230.455 14.8139 230.395 20.2526H230.406C230.398 20.5096 230.394 20.7684 230.394 21.0291C230.394 26.5991 232.076 31.3337 236.002 35.2328C239.647 39.1318 244.414 41.0813 250.302 41.0813C253.947 41.0813 257.032 40.2458 260.116 38.5748C263.201 36.9038 265.444 34.6758 267.126 31.8907L260.677 27.9917C259.555 29.6627 258.153 31.0552 256.471 31.8907C254.789 32.7263 252.826 33.2833 250.583 33.2833C246.937 33.2833 243.853 31.8907 241.61 29.6627C239.366 27.1562 238.245 24.0926 238.245 20.4721C238.245 20.3986 238.245 20.3255 238.246 20.2526H238.266C238.432 17.0047 239.546 14.228 241.61 11.9225C243.853 9.69451 246.937 8.30198 250.582 8.30198C252.826 8.30198 254.789 8.85899 256.471 9.6945C258.153 10.53 259.555 11.9226 260.677 13.5936L267.126 9.6945C265.444 6.90946 263.201 4.68145 260.116 3.01043C257.032 1.3394 253.947 0.503906 250.302 0.503906C244.414 0.503906 239.647 2.45341 236.001 6.35246Z" fill="#5281EE"/>
<path d="M282.548 2.39453H274.978V40.8281H297.41V33.587H282.548V2.39453ZM304.981 40.8281H312.551V2.39453H304.981V40.8281ZM345.359 25.7888L328.815 2.39453H322.926V40.8281H330.497V17.4337L347.041 40.8281H352.929V2.39453H345.359V25.7888Z" fill="#5281EE"/>
</svg>
