<svg width="305" height="42" viewBox="0 0 305 42" fill="none" xmlns="http://www.w3.org/2000/svg">
<path d="M229.357 1.26476V40.1501H237.017V27.4701H243.826C247.514 27.4701 250.635 26.343 253.472 23.807C256.025 21.271 257.444 18.1714 257.444 14.5083C257.444 10.8452 256.025 7.74564 253.472 5.20964C250.919 2.67363 247.798 1.54651 243.826 1.54651H229.357V1.26476ZM237.301 20.4256V8.59096H244.11C245.812 8.59096 247.23 9.15454 248.082 10.2816C249.216 11.4088 249.784 12.8176 249.784 14.5083C249.784 16.199 249.216 17.6079 248.082 18.735C246.947 19.8621 245.528 20.4256 244.11 20.4256H237.301ZM286.097 37.8959C288.65 35.9234 290.069 32.8239 290.069 29.4426C290.069 28.3154 290.069 27.1883 289.785 26.343C289.502 25.4976 289.218 24.6523 288.65 23.807C288.367 23.2434 287.799 22.3981 286.948 21.8345C286.097 21.271 285.53 20.7074 284.962 20.4256C284.395 20.1438 283.544 19.5803 282.409 19.2985C281.274 18.735 280.423 18.4532 279.856 18.4532C279.288 18.1714 278.437 17.8896 277.019 17.6078C274.182 16.7625 272.196 15.9172 271.061 15.0719C269.926 14.2265 269.643 13.3812 269.643 11.9723C269.643 10.8452 270.21 9.99984 271.061 9.15451C271.912 8.30918 273.331 8.02741 274.749 8.02741C278.154 8.02741 280.707 9.71809 282.125 13.0994L288.65 9.4363C287.232 6.61853 285.53 4.64607 282.976 2.9554C280.707 1.54651 277.87 0.701172 274.749 0.701172C271.345 0.701172 268.224 1.8283 265.671 3.80075C263.118 5.77319 261.983 8.59097 261.983 12.2541C261.983 13.9448 262.267 15.6354 262.834 17.0443C263.401 18.4532 264.252 19.5803 265.671 20.4256C266.806 21.271 268.224 22.1163 269.359 22.3981C270.494 22.9617 271.912 23.5252 273.898 24.0887C277.019 24.9341 279.288 25.7794 280.423 26.6248C281.558 27.4701 282.409 28.3154 282.409 29.7243C282.409 30.8514 281.842 31.9786 280.991 32.5421C280.14 33.1057 278.437 33.6692 276.168 33.6692C271.629 33.6692 268.792 31.6968 267.089 27.7519L260.564 31.6967C261.699 34.7963 263.401 37.0505 266.238 38.7412C268.792 40.4319 272.196 41.2772 276.168 41.2772C280.14 40.9954 283.544 39.8683 286.097 37.8959Z" fill="#00A589"/>
<path d="M297.162 40.1509H304.822V1.26562H297.162V40.1509Z" fill="#00A589"/>
<path d="M23.7144 15.335C21.3703 12.6741 18.3565 11.3438 14.3381 11.3438C10.6545 11.3438 7.30578 12.6742 4.62682 15.6676C1.94787 18.661 0.608398 21.987 0.608398 26.3108C0.608398 30.6347 1.94787 33.9607 4.62682 36.9541C7.30578 39.9475 10.6545 41.278 14.3381 41.278C18.3565 41.278 21.3703 39.9475 23.7144 37.2867V40.6127H31.0815V12.3416H23.7144V15.335ZM7.97552 26.3108C7.97552 23.9826 8.64528 21.987 10.3196 20.6566C11.6591 19.3262 13.6683 18.3284 16.0124 18.3284C18.3565 18.3284 20.0309 18.9936 21.7052 20.6566C23.0447 21.987 24.0493 23.9826 24.0493 26.3108C24.0493 28.6391 23.3795 30.6347 21.7052 31.9651C20.3657 33.2955 18.3565 34.2933 16.0124 34.2933C13.6683 34.2933 11.994 33.6281 10.3196 31.9651C8.98015 30.3021 7.97552 28.6391 7.97552 26.3108ZM43.8066 12.0089H36.4394V40.2801H43.8066V26.976C43.8066 24.3152 44.8112 22.3196 46.4855 21.3218C48.1599 20.324 50.1691 19.6588 52.5132 19.9914V12.0089C50.504 12.0089 48.8296 12.3416 47.1553 13.3394C45.4809 14.3372 44.4763 15.6676 43.8066 17.3306V12.0089Z" fill="#F8F8F8"/>
<path d="M72.6052 12.0098H66.2427V4.02734L58.8756 6.35555V12.0098H53.8525V18.9944H58.8756V30.6355C58.8756 34.6267 59.8802 37.2875 61.8894 38.6179C63.8986 40.281 67.5822 40.6135 72.6052 39.9483V33.2963C71.2658 33.2963 69.9263 33.2963 69.2565 33.2963C68.2519 33.2963 67.5822 32.9637 67.2473 32.6311C66.9125 32.2985 66.5776 31.6333 66.5776 30.6355V18.9944H72.9401V12.0098H72.6052ZM100.065 15.3358C98.3902 12.675 95.7113 11.3446 92.3626 11.3446C88.679 11.3446 86.3349 12.675 84.3257 15.0032V12.0098H76.9586V40.281H84.3257V24.6487C84.3257 22.6531 84.6606 20.9901 85.6652 19.9923C86.6698 18.9944 88.0092 18.3292 89.6836 18.3292C91.3579 18.3292 92.3625 18.6618 93.0323 19.6596C93.702 20.6574 94.3718 21.9878 94.3718 23.6508V40.6136H101.739V24.9813C101.739 22.9857 102.074 21.3226 103.078 20.3248C104.083 19.327 105.422 18.6618 107.097 18.6618C108.771 18.6618 109.776 18.9944 110.446 19.9923C111.115 20.9901 111.785 22.3205 111.785 23.9835V40.9462H119.152V23.6508C119.152 19.9922 118.148 17.3314 116.138 15.3358C114.129 13.3402 111.45 12.3424 108.436 12.3424C104.753 11.3446 101.739 12.675 100.065 15.3358ZM151.634 28.9725C151.969 27.9747 151.969 26.9769 151.969 25.9791C151.969 21.6553 150.63 18.3292 147.951 15.3358C145.272 12.3424 141.923 11.012 137.57 11.012C133.217 11.012 129.533 12.3424 126.854 15.3358C124.175 18.3292 122.501 21.6553 122.501 25.9791C122.501 30.3029 123.84 33.6289 126.854 36.6224C129.533 39.2832 133.552 40.9462 138.24 40.9462C143.598 40.9462 147.951 38.9506 150.63 34.9593L144.602 31.6333C143.263 33.6289 140.919 34.2942 138.24 34.2942C133.886 34.2942 131.207 32.6311 130.203 28.9725H151.634ZM132.882 19.3271C134.221 18.3293 135.896 17.9966 137.905 17.9966C139.579 17.9966 140.919 18.3293 142.258 19.3271C143.598 20.3249 144.267 21.6552 144.937 23.6508H130.538C130.538 21.6552 131.542 20.3249 132.882 19.3271Z" fill="#F8F8F8"/>
<path d="M177.085 15.3356C175.075 12.6748 171.727 11.3444 168.043 11.3444C164.36 11.3444 161.011 12.6748 158.332 15.6683C155.653 18.6617 154.313 21.9877 154.313 26.3115C154.313 30.6353 155.653 33.9614 158.332 36.9548C161.011 39.9482 164.36 41.2787 168.043 41.2787C172.062 41.2787 175.075 39.9482 177.085 37.2874V40.6134H184.452V0.701172H177.085V15.3356ZM161.346 26.3115C161.346 23.9833 162.015 21.9877 163.69 20.6573C165.029 19.3269 167.039 18.3291 169.383 18.3291C171.727 18.3291 173.401 18.9943 175.075 20.6573C176.415 21.9877 177.42 23.9833 177.42 26.3115C177.42 28.6397 176.75 30.6353 175.075 31.9657C173.736 33.2962 171.727 34.294 169.383 34.294C167.039 34.294 165.364 33.6288 163.69 31.9657C162.35 30.3027 161.346 28.6397 161.346 26.3115Z" fill="#F8F8F8"/>
<path d="M221.303 22.6543H206.903V28.6411H221.303V22.6543Z" fill="#85D8CC"/>
<path d="M209.918 25.6465H203.891V39.9483H209.918V25.6465Z" fill="#3DBFAA"/>
<path d="M209.919 28.6404H192.506V22.6536H203.891V11.6777H209.919V28.6404Z" fill="#00A589"/>
</svg>
